<svg width="24" height="24" viewBox="0 0 24 24" fill="none" xmlns="http://www.w3.org/2000/svg">
<path d="M8.69922 3.94922C10.2169 3.94922 11.4492 5.18153 11.4492 6.69922C11.4492 8.2169 10.2169 9.44922 8.69922 9.44922C7.17793 9.44922 5.94922 8.21749 5.94922 6.69922C5.94922 5.18095 7.17793 3.94922 8.69922 3.94922Z" stroke="white" stroke-width="1.5"/>
<path d="M19.9894 8.97942C20.1043 8.71742 19.9822 8.41234 19.7202 8.30107C19.4582 8.18622 19.1531 8.30825 19.0383 8.57026L18.6291 9.52857C18.3492 9.48909 18.0692 9.50703 17.8682 9.62188C16.1095 10.7381 14.9143 11.1796 13.249 11.7467C11.3288 12.4035 8.86301 12.2994 6.93563 12.3676C6.76335 12.3712 6.38649 12.3963 6.19267 12.4322C4.40527 12.7301 3.34647 13.9827 3.19931 15.6445L3.19923 20.0009C3.19922 20.5532 3.64693 21.0009 4.19922 21.0009H11.2009C11.7531 21.0009 12.2008 20.5532 12.2009 20.0009L12.2009 15.5584C12.2978 15.3179 13.0193 15.3143 13.4284 15.2066C14.8497 14.8262 21.8522 12.2599 19.5838 9.93055L19.9894 8.97942Z" stroke="white" stroke-width="1.5" stroke-linejoin="round"/>
<path d="M14.3125 3H22.1146" stroke="white" stroke-width="1.5"/>
<path d="M14.3125 5.94727H19.5139" stroke="white" stroke-width="1.5"/>
</svg>
