<svg width="24" height="24" viewBox="0 0 24 24" fill="none" xmlns="http://www.w3.org/2000/svg">
<path d="M15.0367 9.54545C15.0367 13.1604 12.1062 16.0909 8.49123 16.0909C7.29902 16.0909 6.18126 15.7722 5.21851 15.2152L1.40039 16.0909L2.49124 12.1655C2.14041 11.3632 1.94578 10.4771 1.94578 9.54545C1.94578 5.9305 4.87628 3 8.49123 3C12.1062 3 15.0367 5.9305 15.0367 9.54545Z" stroke="white" stroke-width="1.5" stroke-linejoin="round"/>
<path d="M18.1111 7.27344C20.4218 8.2839 22.0365 10.5901 22.0365 13.2734C22.0365 14.2051 21.8419 15.0912 21.491 15.8935L22.543 19.8189L18.7638 18.9432C17.801 19.5001 16.6833 19.8189 15.491 19.8189C14.2988 19.8189 13.1811 19.5001 12.2183 18.9432" stroke="white" stroke-width="1.5" stroke-linejoin="round"/>
<path d="M9.15321 8.82868C9.71943 8.61113 10.0773 8.14129 10.0773 7.63619C10.0773 6.92025 9.37396 6.32255 8.49094 6.32255C7.60792 6.32255 6.90458 6.92025 6.90458 7.63619V7.76573C6.90458 7.86835 6.82083 7.9521 6.71822 7.9521H5.90004C5.79742 7.9521 5.71367 7.86835 5.71367 7.76573V7.63619C5.71367 6.951 6.01376 6.312 6.55575 5.83776L6.55578 5.83773C7.07673 5.38277 7.76358 5.13164 8.49094 5.13164C9.21821 5.13164 9.90511 5.38101 10.4261 5.83776C10.9681 6.31197 11.2682 6.95095 11.2665 7.63619C11.2665 7.63623 11.2665 7.63627 11.2665 7.63631L11.2165 7.63619C11.2165 8.62141 10.5671 9.50778 9.5614 9.89471L9.15321 8.82868ZM9.15321 8.82868C8.78235 8.97038 8.46747 9.21882 8.2419 9.54405L8.24183 9.54417C8.01253 9.87673 7.89379 10.2754 7.89379 10.6788V11.0453C7.89379 11.1479 7.97753 11.2316 8.08015 11.2316H8.89833C9.00095 11.2316 9.08469 11.1479 9.08469 11.0453V10.6585C9.08555 10.5031 9.13319 10.3516 9.22141 10.2237C9.30965 10.0957 9.43438 9.99737 9.57935 9.94137L9.15321 8.82868ZM7.75913 12.9544C7.75913 13.1485 7.83623 13.3346 7.97347 13.4718C8.11071 13.6091 8.29685 13.6862 8.49094 13.6862C8.68503 13.6862 8.87118 13.6091 9.00842 13.4718C9.14566 13.3346 9.22276 13.1485 9.22276 12.9544C9.22276 12.7603 9.14566 12.5741 9.00842 12.4369C8.87118 12.2997 8.68503 12.2225 8.49094 12.2225C8.29685 12.2225 8.11071 12.2997 7.97347 12.4369C7.83623 12.5741 7.75913 12.7603 7.75913 12.9544Z" fill="white" stroke="white" stroke-width="0.1"/>
</svg>
