<svg width="24" height="24" viewBox="0 0 24 24" fill="none" xmlns="http://www.w3.org/2000/svg">
<path d="M16.4434 3V6.57092C16.4434 7.43418 17.1298 8.13772 17.9804 8.13772H21.3603" stroke="white" stroke-width="1.5" stroke-miterlimit="10" stroke-linejoin="round"/>
<path d="M18.909 21H5.46682C4.11633 21 3.01953 19.8819 3.01953 18.5053V5.4947C3.01953 4.11805 4.11633 3 5.46682 3H16.4431L21.3563 8.13771V18.5053C21.3563 19.8819 20.2633 21 18.909 21Z" stroke="white" stroke-width="1.5" stroke-miterlimit="10" stroke-linejoin="round"/>
<path d="M6 15.5L6.78107 13.8077M11.0769 15.5L10.2959 13.8077M6.78107 13.8077L8.53846 10L10.2959 13.8077M6.78107 13.8077H10.2959" stroke="white" stroke-width="1.5" stroke-linejoin="round"/>
<path d="M15.4609 10.4238V15.5008" stroke="white" stroke-width="1.5" stroke-linejoin="round"/>
<path d="M12.9238 12.9609L18.0008 12.9609" stroke="white" stroke-width="1.5" stroke-linejoin="round"/>
</svg>
