<svg width="24" height="24" viewBox="0 0 24 24" fill="none" xmlns="http://www.w3.org/2000/svg">
<path d="M17.5511 5.16732C16.4416 3.27059 14.3897 2 11.9964 2C8.4008 2 5.56963 4.87439 5.56963 8.42251V9.79197C5.56963 11.9926 4.93513 14.131 3.75887 15.9838M20.2376 15.9874C19.4176 14.6949 18.861 13.2632 18.5975 11.7692M14.6346 19.3966C14.6346 20.8356 13.4547 22 11.9964 22C10.5381 22 9.35819 20.8356 9.35819 19.3966M20.2597 19.3965H3.73655C2.77922 19.3965 2 18.6312 2 17.6829C2 16.7382 2.77551 15.9692 3.73655 15.9692H20.2635C21.2208 15.9692 22 16.7345 22 17.6829C21.9963 18.6312 21.2171 19.3965 20.2597 19.3965ZM21.306 8.47385C21.306 10.2919 19.8125 11.7657 17.9702 11.7657C16.1279 11.7657 14.6344 10.2919 14.6344 8.47385C14.6344 6.65584 16.1279 5.18204 17.9702 5.18204C19.8125 5.18204 21.306 6.65584 21.306 8.47385Z" stroke="white" stroke-width="1.5" stroke-miterlimit="10" stroke-linejoin="round"/>
</svg>
