<svg width="24" height="24" viewBox="0 0 24 24" fill="none" xmlns="http://www.w3.org/2000/svg">
<path d="M17.2046 4V9.21585C17.2046 11.9056 15.0536 14.0865 12.4007 14.0865C10.2449 14.0865 8.42373 12.6471 7.81666 10.6649C7.67804 10.2094 7.60156 9.71988 7.60156 9.21585V4H17.2046Z" stroke="white" stroke-width="1.5" stroke-miterlimit="10" stroke-linejoin="round"/>
<path d="M7.78902 10.4759C5.82443 9.68592 4.45734 8.13186 4.19922 4.88477H7.67908" stroke="white" stroke-width="1.5" stroke-miterlimit="10" stroke-linejoin="round"/>
<path d="M17.1055 10.4759C19.0701 9.68592 20.4372 8.13186 20.6953 4.88477H17.2154" stroke="white" stroke-width="1.5" stroke-miterlimit="10" stroke-linejoin="round"/>
<path d="M12.4082 16.9451V14.3086" stroke="white" stroke-width="1.5" stroke-miterlimit="10" stroke-linejoin="round"/>
<path d="M15.9212 16.9453H8.89453V19.9549H15.9212V16.9453Z" stroke="white" stroke-width="1.5" stroke-miterlimit="10" stroke-linejoin="round"/>
<path d="M12.3806 6.48047L13.1422 8.02398L14.8451 8.27016L13.6109 9.4698L13.9038 11.1657L12.3806 10.3686L10.8573 11.1657L11.1503 9.4698L9.91602 8.27016L11.6189 8.02398L12.3806 6.48047Z" fill="white"/>
</svg>
