<svg width="230" height="76" viewBox="0 0 230 76" fill="none" xmlns="http://www.w3.org/2000/svg">
<path d="M57.6207 48.2616C51.9036 48.2616 51.4863 44.786 51.4863 41.0074V29.432H56.1229V40.4995C56.1229 43.1658 56.576 44.3128 59.0857 44.3128C61.0724 44.3128 63.1291 43.3346 64.0353 42.8613V29.432H68.6718V47.8562H64.0353V45.8652C62.7804 46.7438 60.3406 48.2616 57.6207 48.2616ZM74.526 47.8562V24H79.2669V44.1454H89.9678V47.8576H74.526V47.8562ZM101.785 48.2616C95.7892 48.2616 91.9902 46.1696 91.9902 38.9485C91.9902 31.423 95.9292 28.9949 101.298 28.9949C106.804 28.9949 109.036 32.5037 109.036 38.2748V39.895H96.6267C96.6267 43.9448 99.2409 44.6186 102.623 44.6186C103.947 44.6186 106.213 44.18 107.781 43.8756L108.512 47.3512C106.943 47.823 104.399 48.2616 101.785 48.2616ZM96.7311 36.8897H104.26C104.295 34.1225 103.146 32.1993 100.844 32.1993C98.5076 32.1993 96.9397 33.8527 96.7311 36.8897ZM118.377 48.2616C115.693 48.2616 113.566 47.924 111.964 47.4854L112.522 44.0098C114.508 44.3128 116.461 44.6172 117.924 44.6172C120.887 44.6172 121.759 43.74 121.759 42.7272C121.759 39.8921 112.173 41.0059 112.173 34.4933C112.173 30.781 115.659 28.9588 119.632 28.9588C121.863 28.9588 123.884 29.3974 125.349 29.9038L124.582 33.2438C123.082 32.9062 121.653 32.5686 119.632 32.5686C117.505 32.5686 116.809 33.479 116.809 34.2552C116.809 37.1912 126.325 36.3804 126.325 42.4891C126.324 47.1146 121.549 48.2616 118.377 48.2616ZM135.596 48.2616C132.911 48.2616 130.785 47.924 129.182 47.4854L129.74 44.0098C131.727 44.3128 133.679 44.6172 135.142 44.6172C138.105 44.6172 138.977 43.74 138.977 42.7272C138.977 39.8921 129.391 41.0059 129.391 34.4933C129.391 30.781 132.877 28.9588 136.85 28.9588C139.082 28.9588 141.102 29.3974 142.567 29.9038L141.8 33.2438C140.301 32.9062 138.871 32.5686 136.85 32.5686C134.724 32.5686 134.028 33.479 134.028 34.2552C134.028 37.1912 143.544 36.3804 143.544 42.4891C143.544 47.1146 138.769 48.2616 135.596 48.2616ZM155.708 48.2616C149.817 48.2616 146.507 44.685 146.507 38.8129C146.507 32.6047 150.341 28.9602 155.988 28.9602C162.333 28.9602 165.26 32.5715 165.26 38.6441C165.26 44.988 161.217 48.2616 155.708 48.2616ZM155.953 44.6518C159.647 44.6518 160.553 41.9856 160.553 38.6456C160.553 35.5075 159.647 32.5383 155.882 32.5383C152.188 32.5383 151.177 35.5075 151.177 38.6802C151.177 42.0866 152.328 44.6518 155.953 44.6518ZM169.546 47.8562V29.432H174.183V31.3899C175.578 30.4117 177.913 28.9602 180.562 28.9602C186.383 28.9602 186.766 32.3681 186.766 36.1813V47.8562H182.165V36.6877C182.165 33.8873 181.608 32.8745 179.062 32.8745C177.146 32.8745 175.332 33.7185 174.183 34.3259V47.8576H169.546V47.8562Z" fill="white"/>
<path fill-rule="evenodd" clip-rule="evenodd" d="M24.3774 28.1255C25.3968 26.2124 27.4609 24.9023 29.8321 24.9023H40.7489V47.3706H29.8306C25.161 47.3706 25.0609 51.763 25.0556 51.9971L25.0555 52.0005H24.2403H23.6919C23.6919 51.81 23.6129 47.3706 18.9615 47.3706H8.04769L8 46.7127V24.9023H18.9183C21.2894 24.9023 23.3536 26.2124 24.3774 28.1255ZM15.3878 36.2321C14.6501 35.7156 14.0226 35.1255 13.5025 34.4589L12.2327 35.3578C12.6485 36.173 13.2328 36.9939 13.9869 37.8177C14.7395 38.6415 15.6367 39.3831 16.6769 40.041C17.7172 40.6989 18.8871 41.2313 20.1867 41.6396C21.4863 42.0479 22.8902 42.2513 24.3984 42.2513C25.9067 42.2513 27.3106 42.0479 28.6102 41.6396C29.9097 41.2313 31.0797 40.6989 32.1199 40.041C33.1587 39.3831 34.0559 38.6415 34.81 37.8177C35.5626 36.9939 36.1483 36.1744 36.5641 35.3578L35.2899 34.4589C34.7698 35.1241 34.1408 35.7156 33.4046 36.2321C32.6669 36.7486 31.8651 37.1728 30.9992 37.5061C30.1333 37.8394 29.2182 38.0933 28.2569 38.2679C27.2957 38.4424 26.3284 38.5304 25.3582 38.5304H23.4342C22.464 38.5304 21.4967 38.4424 20.5355 38.2679C19.5742 38.0933 18.6591 37.8394 17.7932 37.5061C16.9258 37.1728 16.124 36.7486 15.3878 36.2321Z" fill="#7B7FDA"/>
</svg>
