<svg width="401" height="320" viewBox="0 0 401 320" fill="none" xmlns="http://www.w3.org/2000/svg">
<g clip-path="url(#clip0_2710_4599)">
<path d="M141.685 189.352C140.765 183.574 149.98 181.309 152.384 184.829C151.614 179.306 155.948 172.061 163.389 171.442C177.44 170.092 173.368 180.824 180.123 180.98C186.292 180.863 181.696 171.693 195.741 176.289C199.088 177.315 200.8 181.175 203.171 185.944C207.979 180.506 210.924 184.048 211.811 189.358C188.559 192.761 164.936 192.759 141.685 189.352Z" fill="#D8DAF2"/>
<path d="M306.825 95.7551C306.173 91.198 312.671 89.4186 314.361 92.1909C313.803 87.8401 316.877 82.1506 322.125 81.6486C332.026 80.5888 329.159 89.0338 333.917 89.1565C338.268 89.0617 335.033 81.8494 344.917 85.4639C347.282 86.2671 348.481 89.3071 350.154 93.061C353.546 88.7828 355.621 91.5717 356.245 95.7551C339.881 98.4325 323.19 98.4325 306.825 95.7551Z" fill="#D8DAF2"/>
<path d="M281.368 282.123C280.458 289.213 284.329 297.931 298.408 299.66C314.539 299.939 320.508 289.832 320.028 282.123H281.368Z" fill="#015288"/>
<path d="M319.263 144.74H282.025V278.515H319.263V144.74Z" fill="#FDAC19"/>
<path d="M319.62 144.946L300.644 110.312L281.674 144.946H319.62Z" fill="#FCD4CA"/>
<g style="mix-blend-mode:multiply">
<path d="M307.864 123.476L300.646 110.312L293.434 123.476H307.864Z" fill="#03476D"/>
</g>
<path d="M309.983 145.186H308.572V278.514H309.983V145.186Z" fill="white"/>
<path d="M292.724 145.186H291.312V278.514H292.724V145.186Z" fill="white"/>
<path d="M320.787 277.143H280.504V282.436H320.787V277.143Z" fill="#02797D"/>
<path d="M393.244 256.935C370.598 252.835 339.635 266.768 317.786 283.257C295.369 299.494 282.088 318.28 281.814 317.979C294.571 319.986 307.159 322.942 319.476 326.82C320.168 319.011 320.668 311.168 320.977 303.292C328.734 307.353 336.253 311.743 343.534 316.462C348.621 313.952 353.827 311.578 359.152 309.339C356.597 304.531 353.875 299.751 350.986 294.998C356.91 298.609 362.692 302.406 368.333 306.388C367.781 306.081 409.124 259.64 393.244 256.935Z" fill="#02797D"/>
<g style="mix-blend-mode:multiply">
<path d="M294.403 320.277C303.327 315.865 314.522 306.41 324.88 293.927C331.802 285.521 337.107 276.976 339.985 269.184C305.754 286.693 281.663 318.074 281.813 317.979C286.023 318.645 290.219 319.411 294.403 320.277Z" fill="#02797D"/>
</g>
<path d="M331.965 184.311C333.984 197.988 335.453 211.622 336.371 225.213C329.823 226.329 323.373 227.61 317.022 229.056C322.507 231.001 327.932 233.078 333.298 235.287C333.588 235.231 332.484 254.709 324.195 274.065C316.135 293.649 300.89 313.11 278.222 318.392C256.055 324.405 265.432 275.688 265.46 275.492C272.387 276.351 279.267 277.454 286.098 278.8C286.399 278.599 266.151 263.422 267.468 259.015C270.814 249.41 284.954 229.536 300.444 213.366C315.61 196.989 332.076 184.311 331.965 184.311Z" fill="#02797D"/>
<path d="M273.81 317.237L273.291 317.025C277.753 306.142 281.73 294.429 285.964 282.023C296.272 251.797 306.937 220.538 325.517 196.949L325.952 197.295C307.433 220.806 296.785 252.02 286.488 282.202C282.255 294.629 278.255 306.354 273.81 317.237Z" fill="#096666"/>
<path d="M136.23 321.698L136.543 265.601C136.571 264.61 136.207 263.648 135.529 262.925C134.85 262.202 133.914 261.776 132.923 261.741L76.1676 261.373C75.0521 261.291 73.9721 260.944 73.0169 260.362C72.0616 259.78 71.2583 258.98 70.6733 258.026L68.9163 254.925C68.3315 253.973 67.5291 253.173 66.5749 252.591C65.6207 252.009 64.5421 251.662 63.4277 251.578L46.4151 251.467C45.4238 251.492 44.4825 251.907 43.7961 252.623C43.1098 253.338 42.7339 254.296 42.7504 255.288L42.3711 321.665L136.23 321.698Z" fill="#FDAC19"/>
<path d="M122.085 268.887H54.8047V303.799H122.085V268.887Z" fill="#EFEFEF"/>
<path d="M75.4493 289.749L61.1699 289.85V275.18L75.0422 276.094L75.4493 289.749Z" fill="#EA7052"/>
<path d="M67.573 288.093H67.4056C66.0223 287.931 64.9737 285.861 64.1035 281.611L64.6613 281.499C65.6486 286.335 66.7363 287.451 67.4781 287.54C69.291 287.752 71.6895 282.587 73.7923 278.03C74.3501 276.864 74.9079 275.659 75.4267 274.561L75.9287 274.806C75.3709 275.922 74.8131 277.104 74.2999 278.264C71.9516 283.307 69.7428 288.093 67.573 288.093Z" fill="white"/>
<path d="M85.4449 276.139C85.3335 276.147 85.2216 276.147 85.1102 276.139C84.6028 276.086 84.1158 275.911 83.6904 275.629C83.2651 275.348 82.914 274.967 82.6671 274.521C80.8599 271.23 84.0058 264.102 85.3445 261.056C85.4672 260.783 85.5732 260.548 85.6513 260.364C85.813 259.979 85.9859 259.489 86.2091 258.914C87.3246 255.763 89.1988 250.486 93.5719 251.897C98.3912 253.448 97.733 256.638 97.1529 259.455C96.988 260.162 96.8725 260.88 96.8071 261.603L96.2493 261.569C96.3164 260.818 96.4357 260.073 96.6063 259.338C97.1641 256.627 97.7218 253.821 93.399 252.421C89.5391 251.183 87.8211 255.947 86.7055 259.115C86.4991 259.673 86.3206 260.191 86.1477 260.593L85.8409 261.296C84.6417 264.007 81.4678 271.213 83.1412 274.264C83.3457 274.636 83.6382 274.952 83.9931 275.185C84.3481 275.417 84.7546 275.559 85.1771 275.598C85.4217 275.631 85.6706 275.612 85.9072 275.542C86.1438 275.472 86.3627 275.352 86.5493 275.19C88.9869 273.277 90.1638 265.842 90.3813 263.393L90.9391 263.438C90.6993 266.137 89.5056 273.584 86.9007 275.625C86.4878 275.957 85.9744 276.138 85.4449 276.139Z" fill="black"/>
<path d="M276.319 321.688L300.75 169.523L271.377 157.787L244.943 321.688H276.319Z" fill="white"/>
<path d="M250.434 320.834L249.938 320.728C259.096 277.388 265.762 224.136 272.21 181.281C273.192 174.751 274.177 168.221 275.166 161.691L275.668 161.769C274.683 168.296 273.697 174.825 272.712 181.359C266.264 224.22 259.593 277.477 250.434 320.834ZM256.843 320.673L256.335 320.583C264.256 282.854 270.113 235.136 275.774 197.641C277.414 186.775 279.121 175.547 280.833 164.486L281.335 164.564C279.612 175.619 277.916 186.876 276.271 197.713C270.62 235.203 264.769 282.927 256.843 320.673ZM261.913 320.851L261.417 320.751C271.072 275.146 279.69 218.608 287.761 166.288L288.258 166.366C280.181 218.692 271.563 275.246 261.913 320.851ZM267.262 320.723L266.766 320.611C276.695 275.352 285.34 219.317 293.149 167.704L293.652 167.777C285.82 219.406 277.191 275.447 267.262 320.723ZM272.918 320.695L272.422 320.583C272.706 319.278 272.98 317.973 273.275 316.679C277.537 296.833 281.592 266.344 286.043 239.933C289.948 216.784 293.573 193.212 297.087 170.421L297.589 170.493C294.075 193.29 290.439 216.862 286.54 240.016C282.077 266.439 278.033 296.911 273.772 316.79L272.918 320.695Z" fill="#D8DAF2"/>
<path d="M246.647 321.688L271.379 157.787L196.831 151.557L169.828 321.688H246.647Z" fill="#0086CA"/>
<path d="M228.684 321.688L233.425 209.812L210.506 321.688H228.684Z" fill="#015288"/>
<path d="M213.592 321.687L233.433 209.811L203.747 201.812L182.361 321.687H213.592Z" fill="white"/>
<path d="M188.1 320.695L187.609 320.567C194.777 292.438 199.546 254.19 204.153 225.827C205.269 218.865 206.457 211.664 207.645 204.586L208.142 204.67C206.954 211.742 205.788 218.949 204.655 225.91C200.043 254.274 195.279 292.538 188.1 320.695ZM194.42 320.857L193.929 320.74C201.599 288.388 207.026 245.957 212.275 213.572L213.385 206.505L213.887 206.588L212.738 213.656C207.495 246.046 202.067 288.483 194.42 320.857ZM199.485 320.863L198.988 320.74C208.398 283.29 215.064 238.187 220.346 207.693L220.848 207.782C215.566 238.254 208.923 283.396 199.485 320.863ZM204.778 320.891L204.287 320.762C212.392 289.978 218.232 249.455 223.871 218.916L225.779 208.613L226.281 208.708C225.641 212.137 225.005 215.569 224.373 219.005C218.723 249.555 212.883 290.09 204.778 320.891ZM210.429 320.729L209.938 320.595C216.213 297.419 220.396 264.175 224.44 240.669C226.147 230.757 227.91 220.511 229.801 210.51L230.297 210.604C228.406 220.6 226.643 230.847 224.937 240.759C220.893 264.275 216.732 297.53 210.429 320.729Z" fill="#D8DAF2"/>
<path d="M184.001 321.688L203.746 201.814L129.058 198.857L107.572 321.688H184.001Z" fill="#EA7052"/>
<path d="M129.922 245.138L136.548 220.539L184.329 222.424L181.841 250.905L129.922 245.138Z" fill="white"/>
<path d="M136.615 227.32L136.42 228.034C136.23 228.754 135.968 229.707 135.968 229.707L136.459 229.836L137.123 227.387L136.632 227.253L136.615 227.32ZM135.293 232.223L135.143 232.781V232.82V232.848L134.663 234.627L135.154 234.761L135.812 232.312L135.321 232.178L135.293 232.223ZM133.977 237.12L133.375 239.352V239.396L133.347 239.502L133.837 239.636L134.496 237.187L134.01 237.054L133.977 237.12ZM132.655 242.018L132.242 243.557L132.75 243.613L133.179 243.658L133.235 243.156L132.884 243.117L133.146 242.152L132.655 242.018ZM135.756 243.435L135.7 243.942L138.222 244.221L138.277 243.714L135.756 243.435ZM140.776 243.992L140.721 244.494L143.242 244.773L143.303 244.271L140.776 243.992ZM145.796 244.55L145.746 245.058L146.538 245.147H146.695L148.267 245.326L148.323 244.818L145.796 244.539V244.55ZM150.817 245.108L150.766 245.61L151.653 245.71L153.265 245.889L153.321 245.387L150.794 245.108H150.817ZM155.865 245.666L155.809 246.168L158.33 246.452L158.386 245.945L155.865 245.666ZM160.885 246.224L160.829 246.726L163.35 247.004L163.406 246.502L160.885 246.224ZM165.905 246.781L165.849 247.283L167.31 247.445H167.344L168.37 247.562L168.426 247.055L165.905 246.776V246.781ZM170.925 247.339L170.869 247.847L172.95 248.075H173.223L173.547 248.109L173.602 247.607L171.081 247.322L170.925 247.339ZM175.945 247.897L175.889 248.399L178.41 248.683L178.466 248.176L175.945 247.897ZM179.822 245.387L179.604 247.914L180.106 247.958L180.324 245.482L179.816 245.437L179.822 245.387ZM180.262 240.333L180.045 242.855L180.547 242.905C180.547 242.905 180.547 242.587 180.614 242.185L180.77 240.417L180.262 240.378V240.333ZM180.703 235.274L180.485 237.801L180.987 237.846C180.987 237.846 181.071 236.931 181.132 236.206L181.205 235.352L180.697 235.308L180.703 235.274ZM181.144 230.221L180.926 232.747L181.428 232.792L181.651 230.265L181.144 230.221ZM181.584 225.167L181.367 227.694L181.874 227.738L182.031 225.92C182.064 225.535 182.092 225.24 182.092 225.24L181.584 225.195V225.167ZM178.176 223.99V224.498L180.709 224.598V224.096L179.314 224.04L178.198 223.99H178.176ZM173.111 223.789V224.302L175.644 224.397V223.89L173.111 223.789ZM168.036 223.594V224.102L170.568 224.202V223.694L168.03 223.594H168.036ZM162.965 223.393V223.901L165.498 224.001V223.494L164.27 223.443H164.243L162.96 223.393H162.965ZM157.901 223.192V223.7L160.438 223.8V223.293L157.906 223.192H157.901ZM152.83 222.992V223.499L155.368 223.6V223.092L152.836 222.992H152.83ZM147.76 222.796V223.304L150.298 223.399V222.891L149.221 222.852L147.777 222.796H147.76ZM142.69 222.596V223.103L145.228 223.204V222.696L142.695 222.596H142.69ZM137.775 222.4L137.117 224.849L137.608 224.983L138.166 222.925L140.14 223.003V222.495L137.764 222.4H137.775Z" fill="#015288"/>
<path d="M229.22 169.879C229.11 169.887 229 169.887 228.891 169.879C228.383 169.826 227.895 169.652 227.468 169.37C227.042 169.088 226.69 168.708 226.442 168.261C224.641 164.97 227.781 157.842 229.125 154.796L229.426 154.105C229.588 153.72 229.767 153.223 229.984 152.654C231.1 149.503 232.968 144.226 237.347 145.637C242.166 147.188 241.508 150.379 240.928 153.195C240.765 153.901 240.651 154.616 240.588 155.337L240.03 155.304C240.092 154.552 240.21 153.807 240.381 153.073C240.939 150.356 241.497 147.556 237.18 146.156C233.32 144.912 231.63 149.676 230.486 152.85C230.28 153.407 230.101 153.926 229.928 154.328L229.622 155.03C228.428 157.741 225.248 164.948 226.922 167.999C227.128 168.371 227.422 168.686 227.777 168.919C228.133 169.151 228.54 169.293 228.963 169.332C229.208 169.365 229.458 169.346 229.694 169.275C229.931 169.203 230.15 169.082 230.336 168.919C232.773 167.012 233.944 159.576 234.162 157.122L234.72 157.172C234.48 159.872 233.286 167.319 230.676 169.36C230.263 169.692 229.75 169.875 229.22 169.879Z" fill="black"/>
<path fill-rule="evenodd" clip-rule="evenodd" d="M210.038 349.634C210.144 354.152 209.101 352.557 208.721 349.344C208.554 347.927 206.384 351.185 206.384 351.185C204.153 351.38 205.425 346.873 204.627 347.464C202.87 352.356 202.234 350.008 202.256 348.658C204.142 338.06 210.211 317.109 210.038 349.634Z" fill="#02797D"/>
<path d="M108.079 194.952L109.356 196.592C111.029 198.723 112.731 200.926 114.549 203.046L115.107 202.566C113.3 200.463 111.587 198.266 109.936 196.14L108.653 194.5L108.079 194.952ZM96.8058 199.738L96.421 201.774C95.919 204.429 95.4002 207.173 95.0098 209.946L95.7349 210.046C96.1253 207.296 96.6441 204.557 97.1461 201.913L97.531 199.872L96.8058 199.738ZM115.665 180.02L115.832 180.729L117.851 180.26C120.473 179.646 123.184 179.005 125.922 178.503L125.811 177.789C123.055 178.302 120.339 178.938 117.706 179.557L115.665 180.02Z" fill="#FDAC19"/>
<path d="M48.0448 325.386L5.3125 264.135L5.40732 263.979L70.0607 162.383L70.5181 162.667L5.95954 264.118L48.4854 325.073L48.0448 325.386Z" fill="#FDAC19"/>
<path d="M2.01011 264.085C2.1886 267.013 4.5369 269.155 6.99675 269.043C9.45661 268.932 11.4089 266.344 11.236 263.415C11.063 260.487 8.8263 258.328 6.36645 258.44C3.9066 258.551 1.83719 261.156 2.01011 264.085ZM100.817 325.542L39.4601 325.413L38.3055 320.131L100.778 320.248C100.995 320.248 100.817 325.542 100.817 325.542Z" fill="#0086CA"/>
<path d="M79.8779 147.295L66.7363 161.044L85.5952 209.416L120.028 170.064L79.8779 147.295Z" fill="#0086CA"/>
<path d="M68.8676 168.915C63.5854 164.118 61.4379 153.509 65.3145 148.31C69.9999 142.035 78.8297 144.171 86.8285 148.667C87.1297 148.834 87.3862 149.007 87.6986 149.186C80.4418 155.645 75.483 161.998 68.8676 168.915Z" fill="#015288"/>
<path d="M85.3327 147.568L67.0918 167.273L67.4889 167.641L85.7298 147.936L85.3327 147.568Z" fill="white"/>
<path d="M83.6477 204.257L83.2461 203.9L115.168 167.471L115.576 167.828L83.6477 204.257Z" fill="white"/>
<path opacity="0.7" d="M80.3178 321.247C80.1282 317.342 82.4151 315.083 85.8957 314.553C90.1293 313.934 93.7048 315.513 95.0491 320.343C95.0993 320.522 95.1439 320.7 95.1885 320.901C89.9118 320.583 85.5387 321.141 80.3178 321.247ZM223.859 130.834L223.43 130.477C224.471 129.217 225.174 127.712 225.471 126.104L226.029 126.21C225.71 127.91 224.963 129.502 223.859 130.834ZM219.208 130.628C217.978 129.408 217.088 127.889 216.625 126.221L217.183 126.048C217.615 127.623 218.449 129.059 219.604 130.215L219.208 130.628ZM215.671 121.24C215.582 120.258 215.537 119.226 215.537 118.167C215.537 117.52 215.537 116.85 215.587 116.186L216.145 116.214C216.112 116.867 216.095 117.525 216.095 118.167C216.095 119.21 216.14 120.225 216.223 121.19L215.671 121.24ZM225.538 121.201C225.293 119.564 224.888 117.956 224.328 116.398L224.852 116.214C225.427 117.805 225.841 119.45 226.091 121.123L225.538 121.201ZM55.0332 115.065V114.837C55.034 113.226 55.1495 111.617 55.379 110.023L55.9368 110.101C55.712 111.67 55.5983 113.252 55.5966 114.837V115.06L55.0332 115.065ZM117.199 113.643L117.121 113.085C117.439 113.041 117.757 112.985 118.086 112.923C119.377 112.671 120.623 112.227 121.784 111.607L122.052 112.098C120.84 112.745 119.54 113.207 118.192 113.47C117.857 113.57 117.522 113.643 117.199 113.671V113.643ZM112.112 113.375C110.442 112.921 108.922 112.034 107.705 110.804L108.101 110.408C109.248 111.57 110.682 112.407 112.257 112.834L112.112 113.375ZM222.348 111.797C221.634 110.385 220.797 108.93 219.866 107.463L220.334 107.167C221.277 108.645 222.119 110.118 222.844 111.546L222.348 111.797ZM216.675 111.239L216.117 111.15C216.385 109.51 216.736 107.848 217.172 106.213L217.729 106.358C217.289 107.987 216.937 109.627 216.675 111.25V111.239ZM126.045 108.974L125.633 108.601C126.733 107.371 127.659 105.995 128.383 104.512L128.885 104.757C128.138 106.291 127.183 107.714 126.045 108.985V108.974ZM105.011 106.492C104.428 104.889 104.097 103.205 104.029 101.5L104.587 101.472C104.654 103.119 104.974 104.747 105.535 106.297L105.011 106.492ZM56.9966 105.276L56.4388 105.114C56.9218 103.499 57.5144 101.919 58.2126 100.384L58.7202 100.619C58.0389 102.129 57.463 103.686 56.9966 105.276ZM300.957 103.647C300.739 102.013 300.303 100.415 299.663 98.895L300.176 98.683C300.842 100.255 301.292 101.91 301.515 103.603L300.957 103.647ZM217.027 103.38C216.056 102.086 215.007 100.769 213.897 99.4751L214.321 99.1125C215.437 100.418 216.497 101.74 217.473 103.045L217.027 103.38ZM219.258 101.617L218.733 101.416C219.336 99.8321 220.011 98.2758 220.753 96.7921L221.255 97.0431C220.502 98.5308 219.83 100.058 219.241 101.617H219.258ZM130.569 99.9827L130.011 99.86C130.385 98.2459 130.585 96.5967 130.608 94.9403H131.166C131.151 96.6374 130.952 98.328 130.575 99.9827H130.569ZM104.989 96.5634L104.431 96.4519C104.504 96.1116 104.582 95.7714 104.671 95.4311C105.014 94.1312 105.465 92.8624 106.021 91.6382L106.528 91.8668C105.987 93.0627 105.547 94.3016 105.212 95.5706C105.139 95.8997 105.061 96.2343 104.994 96.5634H104.989ZM61.1075 96.2343L60.6334 95.9387C61.5229 94.5096 62.497 93.135 63.5507 91.8222L63.9857 92.1681C62.9482 93.4664 61.9872 94.8242 61.1075 96.2343ZM210.523 95.7937C209.379 94.6056 208.18 93.4175 206.958 92.274L207.338 91.8668C208.565 93.0215 209.775 94.2096 210.924 95.4088L210.523 95.7937ZM297.27 94.5777C296.331 93.21 295.285 91.9193 294.141 90.7178L294.548 90.3385C295.711 91.5543 296.776 92.8598 297.733 94.243L297.27 94.5777ZM223.72 92.7481L223.251 92.4414C224.173 91.031 225.183 89.6803 226.275 88.3974L226.699 88.76C225.621 90.0139 224.626 91.3368 223.72 92.7203V92.7481ZM130.112 90.0596C130.011 89.6357 129.894 89.2118 129.766 88.8046C129.4 87.6518 128.938 86.5322 128.383 85.4578L128.873 85.2013C129.45 86.3098 129.928 87.4671 130.301 88.6596C130.43 89.0835 130.552 89.513 130.653 89.9536L130.112 90.0596ZM203.216 88.944C201.944 87.8731 200.633 86.8133 199.311 85.8037L199.646 85.363C200.979 86.3782 202.301 87.438 203.55 88.5201L203.216 88.944ZM67.299 88.4755L66.903 88.085C68.0688 86.9081 69.3238 85.7646 70.629 84.6881L70.986 85.1176C69.6919 86.1551 68.4536 87.2874 67.299 88.4476V88.4755ZM109.022 87.6109L108.57 87.2874C109.551 85.9125 110.642 84.6198 111.833 83.4219L112.229 83.8179C111.06 84.9841 109.987 86.2433 109.022 87.583V87.6109ZM290.482 87.3376C289.19 86.2901 287.84 85.3161 286.438 84.4204L286.739 83.9518C288.159 84.8587 289.526 85.8458 290.833 86.9081L290.482 87.3376ZM230.196 85.1957L229.828 84.7773C231.097 83.6634 232.453 82.6524 233.883 81.7541L234.179 82.2282C232.773 83.1079 231.441 84.1003 230.196 85.1957ZM195.256 82.8418C193.878 81.8936 192.467 80.9732 191.056 80.1086L191.351 79.6345C192.763 80.5047 194.185 81.4306 195.568 82.3844L195.256 82.8418ZM74.9798 82.0999L74.6674 81.637C76.0507 80.6999 77.4954 79.813 78.968 78.9986L79.2357 79.4839C77.7799 80.2871 76.3464 81.1684 74.9798 82.0944V82.0999ZM282.109 81.9159C280.642 81.174 279.109 80.4824 277.552 79.8744L277.759 79.3556C279.326 79.9748 280.877 80.6664 282.36 81.4194L282.109 81.9159ZM125.588 81.3581C124.493 80.1217 123.26 79.0156 121.912 78.0615L122.23 77.6042C123.615 78.5835 124.882 79.7196 126.006 80.9899L125.588 81.3581ZM115.972 80.527L115.637 80.0863C116.972 79.0629 118.361 78.1114 119.798 77.236L120.088 77.7157C118.667 78.5703 117.292 79.5013 115.972 80.5047V80.527ZM238.591 79.9692L238.373 79.456C239.925 78.8017 241.509 78.2283 243.12 77.738L243.282 78.2679C241.698 78.7253 240.119 79.2998 238.591 79.9413V79.9692ZM272.828 78.2958C271.233 77.8329 269.604 77.4368 267.975 77.1245L268.081 76.5667C269.754 76.8846 271.372 77.2862 272.984 77.7492L272.828 78.2958ZM186.722 77.5874C185.244 76.7842 183.743 76.02 182.259 75.3172L182.499 74.8096C183.994 75.518 185.5 76.2878 186.99 77.0966L186.722 77.5874ZM83.7092 77.2527L83.4861 76.7452C85.0256 76.0591 86.6041 75.4455 88.1827 74.91L88.3611 75.4344C86.7993 75.9643 85.2375 76.5778 83.7092 77.2527ZM248.123 77.0296L248.017 76.4718C249.677 76.1465 251.353 75.9063 253.037 75.7523L253.088 76.3101C251.403 76.4718 249.741 76.7117 248.123 77.0296ZM263.027 76.3547C261.354 76.193 259.681 76.1037 258.041 76.0981V75.5403C259.714 75.5403 261.388 75.6352 263.061 75.8025L263.027 76.3547ZM117.595 75.5905C116.079 74.9062 114.51 74.3465 112.904 73.9172L113.043 73.3594C114.68 73.7856 116.279 74.3453 117.824 75.0327L117.595 75.5905ZM124.467 75.2949L124.216 74.7929C125.688 74.0678 127.239 73.3817 128.829 72.7458L129.035 73.2646C127.485 73.8949 125.928 74.5977 124.472 75.2949H124.467ZM93.1637 74.0399L93.0298 73.4821C94.7032 73.0916 96.3766 72.7793 97.9942 72.5617L98.0667 73.1195C96.4491 73.3594 94.798 73.6662 93.1637 74.0399ZM177.686 73.3036C176.124 72.6733 174.545 72.0932 172.989 71.58L173.168 71.0222C174.735 71.541 176.325 72.1378 177.892 72.757L177.686 73.3036ZM108.018 73.0303C106.366 72.8406 104.704 72.7549 103.042 72.7737V72.2159C104.729 72.1964 106.415 72.2839 108.09 72.4781L108.018 73.0303ZM133.754 71.5745L133.587 71.0167C135.171 70.5091 136.8 70.0461 138.434 69.6333L138.568 70.1911C136.967 70.6039 135.327 71.0669 133.749 71.5745H133.754ZM168.203 70.1744C166.574 69.7561 164.929 69.4046 163.323 69.1202L163.423 68.5624C165.041 68.8524 166.697 69.2094 168.343 69.6278L168.203 70.1744ZM143.465 69.1369L143.365 68.5791C144.168 68.4341 144.966 68.3002 145.747 68.1887C146.527 68.0771 147.487 67.9544 148.363 67.8707L148.413 68.4285C147.548 68.5066 146.678 68.6126 145.83 68.7353C144.982 68.858 144.252 69.0198 143.454 69.1369H143.465ZM158.369 68.462C156.696 68.3114 155.023 68.2277 153.388 68.2277V67.6699C155.062 67.6699 156.735 67.7536 158.408 67.9098L158.369 68.462Z" fill="#313848"/>
<path d="M159.865 33.6507L159.497 31.1295C159.017 27.8664 158.521 24.4862 158.192 21.0892L159.084 21C159.413 24.3969 159.91 27.7437 160.395 31.0012L160.763 33.5224L159.865 33.6507ZM146.088 39.5688L143.968 38.1855C141.179 36.3894 138.329 34.5264 135.551 32.5239L136.075 31.7988C138.864 33.7845 141.692 35.642 144.442 37.4325L146.567 38.8214L146.088 39.5688ZM130.798 55.8953L130.637 55.014C133.983 54.3893 137.269 53.6084 140.465 52.8498L142.964 52.2864L143.17 53.1622L140.677 53.7199C137.47 54.4841 134.179 55.2706 130.798 55.8953ZM179.466 39.5688L178.975 38.8214L181.1 37.4325C183.861 35.642 186.717 33.7845 189.467 31.7988L189.991 32.5239C187.225 34.5264 184.38 36.3894 181.591 38.1855L179.466 39.5688ZM194.755 55.8953C191.408 55.2706 188.061 54.4841 184.882 53.7199L182.383 53.1622L182.589 52.2864L185.088 52.8442C188.284 53.6028 191.586 54.3837 194.922 55.0084L194.755 55.8953Z" fill="#FDAC19"/>
<path fill-rule="evenodd" clip-rule="evenodd" d="M159.117 88.2031C159.117 88.3984 160.233 90.8749 160.233 91.0702H165.638C165.638 90.8749 166.452 88.3984 166.43 88.2031H159.117Z" fill="#015288"/>
<path fill-rule="evenodd" clip-rule="evenodd" d="M155.882 71.2505C156.44 72.6171 156.936 79.3831 157.422 80.772H168.923C169.481 79.3775 170.011 72.606 170.597 71.2394C171.902 69.3485 177.932 62.3147 179.973 55.7663C182.723 47.5221 175.02 35.8866 163.078 35.8699C151.18 35.7639 142.78 46.5962 145.524 54.8627C147.593 61.7291 153.333 68.1771 155.882 71.2505Z" fill="#FDAC19"/>
<path d="M165.27 79.8918C164.395 75.1004 164.818 65.0212 166.564 57.7643C166.329 57.7926 166.09 57.7755 165.862 57.7141C164.746 57.4241 163.971 56.1802 163.402 54.769C162.582 56.6208 161.578 57.6416 160.406 57.8089C159.94 57.8685 159.467 57.8031 159.034 57.6193C160.066 64.5582 161.182 74.6263 160.897 79.8472L160.189 79.8082C160.457 74.8606 159.358 64.4634 158.248 57.1898C156.998 56.1998 156.002 54.9264 155.342 53.4749C154.594 51.9521 153.964 49.9329 154.656 49.2636L154.7 49.2246C154.928 49.0325 155.203 48.9033 155.496 48.8495C155.79 48.7957 156.092 48.8192 156.374 48.9178C157.601 49.4254 158.013 51.6007 158.231 52.7665V52.8167C158.432 53.8821 158.66 55.232 158.9 56.7715C159.317 57.0355 159.81 57.1514 160.3 57.1005C161.104 56.989 162.119 56.2415 163.039 53.7538C162.791 52.966 162.586 52.1654 162.426 51.3553C161.968 49.0516 162.593 47.2611 163.452 46.681C163.593 46.5663 163.767 46.4983 163.949 46.4863C164.131 46.4743 164.312 46.519 164.467 46.6141C165.025 46.9599 165.164 47.897 164.919 49.258C164.671 50.7847 164.298 52.2884 163.803 53.7538C164.428 55.6112 165.22 56.7826 166.034 57.0001C166.266 57.0695 166.512 57.0695 166.743 57.0001C167.183 55.1624 167.861 53.3902 168.762 51.729L168.896 51.5003C169.342 50.7306 169.761 50.0055 170.346 50.0612C170.843 50.1114 171.049 50.7139 171.122 50.9091C171.679 52.5824 169.448 55.5889 168.823 56.3085C168.425 56.7951 167.936 57.2004 167.384 57.5022C165.611 64.6251 165.103 74.9442 165.984 79.7524L165.27 79.8918ZM170.257 50.7975C169.955 51.1155 169.701 51.4764 169.504 51.8685L169.37 52.1027C168.616 53.483 168.037 54.952 167.646 56.4758C167.873 56.2849 168.084 56.076 168.277 55.8511C169.247 54.7355 170.798 52.2143 170.435 51.1545C170.401 51.0245 170.34 50.903 170.257 50.7975ZM155.135 49.7879C154.957 50.0333 155.079 51.3163 155.983 53.1347C156.508 54.2441 157.219 55.2553 158.086 56.1244C157.902 54.9419 157.712 53.8598 157.528 52.9283V52.9004C157.361 52.0135 156.97 49.9385 156.095 49.5815C155.93 49.532 155.756 49.525 155.588 49.5611C155.421 49.5972 155.265 49.6752 155.135 49.7879ZM164.032 47.2221C163.968 47.2291 163.906 47.2521 163.854 47.289C163.296 47.6683 162.71 49.1409 163.134 51.2382C163.229 51.7067 163.329 52.1585 163.441 52.5769C163.765 51.4507 164.025 50.3073 164.222 49.152C164.456 47.858 164.222 47.3336 164.088 47.2388C164.071 47.2275 164.052 47.2217 164.032 47.2221Z" fill="#015288"/>
<path fill-rule="evenodd" clip-rule="evenodd" d="M155.457 79.2394L156.846 80.7566C155.541 80.6339 155.474 82.7144 157.119 82.8148C155.446 82.7479 155.373 84.8898 157.008 84.9121C155.373 84.8285 155.306 87.2381 156.846 87.3775L155.82 88.4931C157.934 89.486 169.636 89.4246 169.881 88.3927L168.95 87.2771C170.59 87.1321 170.155 84.9567 168.788 85.046C169.084 85.046 169.368 84.9285 169.577 84.7192C169.786 84.51 169.904 84.2263 169.904 83.9304C169.904 83.6345 169.786 83.3508 169.577 83.1416C169.368 82.9324 169.084 82.8148 168.788 82.8148C169.044 82.8117 169.289 82.7144 169.477 82.5416C169.665 82.3688 169.783 82.1327 169.808 81.8784C169.833 81.6242 169.763 81.3697 169.612 81.1637C169.461 80.9577 169.239 80.8148 168.989 80.7622L170.105 79.2227L155.457 79.2394Z" fill="#0086CA"/>
<path d="M92.1218 109.404H18.9844V122.049H92.1218V109.404Z" fill="#EA7052"/>
<path d="M77.0669 120.442C68.2259 120.258 21.5444 120.119 21.0703 120.119H20.7747L19.832 111.411H20.1723C28.3049 110.854 38.3897 110.586 50.1479 110.586C64.7899 110.586 76.9218 111.027 77.0445 111.032H77.2956L77.3513 111.272C77.5354 112.003 79.0916 118.462 77.8645 120.04C77.7704 120.163 77.6498 120.263 77.5116 120.333C77.3735 120.402 77.2215 120.44 77.0669 120.442ZM21.3436 119.455C25.3542 119.455 68.5829 119.6 77.0613 119.784C77.1197 119.784 77.1772 119.77 77.2289 119.743C77.2805 119.716 77.3245 119.676 77.3569 119.628C78.1155 118.663 77.4294 114.334 76.7991 111.662C74.9975 111.601 63.6464 111.227 50.1702 111.227C38.5905 111.227 28.634 111.495 20.6074 112.025L21.3436 119.455ZM85.1771 113.838C84.8576 113.43 84.3925 113.162 83.8794 113.09C83.3663 113.018 82.8453 113.147 82.4257 113.451C82.0062 113.755 81.7208 114.21 81.6296 114.72C81.5383 115.23 81.6483 115.756 81.9364 116.186C82.2553 116.589 82.7037 116.87 83.2058 116.981C83.7079 117.092 84.2328 117.026 84.6918 116.794L86.566 119.421L87.0234 119.092L84.9428 116.604C85.2766 116.231 85.48 115.759 85.5222 115.26C85.5645 114.761 85.4434 114.262 85.1771 113.838ZM84.4018 116.175C84.1717 116.343 83.8968 116.44 83.612 116.451C83.3272 116.463 83.0452 116.39 82.8019 116.242C82.5586 116.093 82.3649 115.876 82.2454 115.617C82.1259 115.358 82.086 115.069 82.1307 114.788C82.1754 114.506 82.3027 114.244 82.4965 114.035C82.6903 113.826 82.9418 113.679 83.2192 113.613C83.4966 113.548 83.7872 113.566 84.0544 113.665C84.3215 113.765 84.5531 113.941 84.7197 114.173C84.9403 114.481 85.0305 114.864 84.9711 115.239C84.9116 115.614 84.7071 115.95 84.4018 116.175Z" fill="white"/>
</g>
<defs>
<clipPath id="clip0_2710_4599">
<rect width="400" height="320" fill="white" transform="translate(0.5)"/>
</clipPath>
</defs>
</svg>
