 <svg
              width="156"
              height="214"
              viewBox="0 0 156 214"
              fill="none"
              xmlns="http://www.w3.org/2000/svg"
            >
              <g opacity="0.3">
                <path
                  d="M0.309628 4.30237C-2.93785 -2.04837 21.1633 -17.6997 25.723 -15.849C37.5235 -11.0578 33.9078 53.4078 22.2773 51.6322C9.98598 49.7533 25.2227 9.2721 15.6407 2.06646C12.9691 0.0560188 1.72568 7.07377 0.309628 4.30237Z"
                  fill="#EA7052"
                />
                <path
                  d="M0.00239139 82.043C0.634894 67.7256 56.0591 51.5482 57.1448 58.0868C57.7301 61.6286 33.2324 74.2267 10.264 82.8697C6.89384 84.138 -0.148654 85.6129 0.00239139 82.043Z"
                  fill="#EA7052"
                />
                <path
                  d="M40.5586 141.211C41.5876 140.882 63.7252 138.881 63.8668 133.15C63.999 127.682 42.0313 125.277 42.0313 125.277L40.5586 141.211Z"
                  fill="#EA7052"
                />
                <path
                  d="M35.5918 86.7967C27.1238 90.0472 -0.5081 126.996 6.94033 137.264C10.2161 141.774 25.7172 134.906 30.5884 137.95C37.6686 142.375 34.1663 171.771 44.5412 170.38C52.1973 169.347 55.728 79.0743 35.5918 86.7967ZM37.9707 122.289C36.0543 125.108 24.5843 125.568 23.1777 122.073C21.6861 118.372 28.4077 106.835 32.6464 107.418C35.0631 107.737 39.6039 119.884 37.9707 122.289Z"
                  fill="#EA7052"
                />
                <path
                  d="M79.3934 107.625C80.1487 90.3955 146.854 70.93 148.157 78.7932C148.865 83.0584 119.373 98.2212 91.732 108.621C87.6915 110.152 79.2141 111.928 79.3934 107.625Z"
                  fill="#EA7052"
                />
                <path
                  d="M128.202 178.836C129.439 178.432 156.089 176.027 156.259 169.131C156.419 162.555 129.977 159.652 129.977 159.652L128.202 178.836Z"
                  fill="#EA7052"
                />
                <path
                  d="M122.236 113.346C112.04 117.254 78.7818 161.728 87.7596 174.082C91.7056 179.512 110.36 171.245 116.222 174.908C124.747 180.235 120.527 215.606 133.017 213.943C142.221 212.703 146.469 104.055 122.236 113.346ZM125.096 156.063C122.793 159.454 108.981 159.999 107.301 155.8C105.507 151.337 113.588 137.462 118.696 138.157C121.603 138.551 127.069 153.169 125.096 156.063Z"
                  fill="#EA7052"
                />
                <path
                  d="M114.42 43.4128C115.411 43.0933 136.718 41.1674 136.86 35.6528C136.992 30.3919 115.845 28.0714 115.845 28.0714L114.42 43.4128Z"
                  fill="#EA7052"
                />
                <path
                  d="M109.642 -8.96132C101.485 -5.83293 74.8921 29.7349 82.0667 39.6087C85.2198 43.9489 100.145 37.3446 104.827 40.2663C111.643 44.522 108.264 72.8091 118.261 71.4751C125.624 70.498 129.023 -16.3924 109.642 -8.96132ZM112.125 25.545C110.397 28.0909 100.041 28.5043 98.7761 25.3477C97.4356 22.0032 103.496 11.5846 107.32 12.1107C109.5 12.4113 113.607 23.3842 112.125 25.545Z"
                  fill="#EA7052"
                />
              </g>
            </svg>