<svg width="25" height="24" viewBox="0 0 25 24" fill="none" xmlns="http://www.w3.org/2000/svg">
<g opacity="0.5">
<path d="M3.92773 18.4555C4.69805 16.4751 7.18626 15.9162 10.3868 16.1547C18.5365 16.574 18.4581 12.2043 15.3223 7.60283C14.0135 5.68385 13.2568 3.88076 13.4374 2.40147C13.509 1.83566 13.7169 1.31757 14.0816 0.857422" stroke="white" stroke-width="1.5" stroke-miterlimit="10" stroke-linecap="round" stroke-linejoin="round"/>
<path d="M11.7658 22.9828C13.0951 21.3263 12.335 18.8926 10.5285 16.2374C6.0872 9.38975 9.91153 7.27307 15.464 7.6855C17.6624 7.84911 19.5201 7.63778 20.7233 6.84701C21.272 6.48571 21.6845 6.00511 21.9265 5.38477" stroke="white" stroke-width="1.5" stroke-miterlimit="10" stroke-linecap="round" stroke-linejoin="round"/>
<path d="M12.2978 13.1308L8.58594 10.9902" stroke="white" stroke-width="1.5" stroke-miterlimit="10" stroke-linejoin="round"/>
<path d="M9.0767 19.2021L5.40234 17.082" stroke="white" stroke-width="1.5" stroke-miterlimit="10" stroke-linejoin="round"/>
<path d="M20.7326 6.85603L17.123 4.77344" stroke="white" stroke-width="1.5" stroke-miterlimit="10" stroke-linejoin="round"/>
<path d="M14.7925 11.2985L10.041 8.55469" stroke="white" stroke-width="1.5" stroke-miterlimit="10" stroke-linejoin="round"/>
</g>
</svg>
