<svg width="25" height="24" viewBox="0 0 25 24" fill="none" xmlns="http://www.w3.org/2000/svg">
<g opacity="0.5">
<path d="M4.78114 5.99002C6.19847 5.99002 7.34745 4.84105 7.34745 3.42372C7.34745 2.00639 6.19847 0.857422 4.78114 0.857422C3.36382 0.857422 2.21484 2.00639 2.21484 3.42372C2.21484 4.84105 3.36382 5.99002 4.78114 5.99002Z" stroke="white" stroke-width="1.5" stroke-miterlimit="10" stroke-linecap="round" stroke-linejoin="round"/>
<path d="M18.9607 8.37053C20.7338 8.37053 22.1713 6.93307 22.1713 5.15987C22.1713 3.38668 20.7338 1.94922 18.9607 1.94922C17.1875 1.94922 15.75 3.38668 15.75 5.15987C15.75 6.93307 17.1875 8.37053 18.9607 8.37053Z" stroke="white" stroke-width="1.5" stroke-miterlimit="10" stroke-linecap="round" stroke-linejoin="round"/>
<path d="M12.206 14.7519C14.1633 14.7519 15.75 13.1653 15.75 11.208C15.75 9.25074 14.1633 7.66406 12.206 7.66406C10.2488 7.66406 8.66211 9.25074 8.66211 11.208C8.66211 13.1653 10.2488 14.7519 12.206 14.7519Z" stroke="white" stroke-width="1.5" stroke-miterlimit="10" stroke-linecap="round" stroke-linejoin="round"/>
<path d="M20.0724 18.9475C21.3302 18.9475 22.3498 17.9278 22.3498 16.67C22.3498 15.4122 21.3302 14.3926 20.0724 14.3926C18.8146 14.3926 17.7949 15.4122 17.7949 16.67C17.7949 17.9278 18.8146 18.9475 20.0724 18.9475Z" stroke="white" stroke-width="1.5" stroke-miterlimit="10" stroke-linecap="round" stroke-linejoin="round"/>
<path d="M6.72585 23.1431C8.14931 23.1431 9.30326 21.9892 9.30326 20.5657C9.30326 19.1422 8.14931 17.9883 6.72585 17.9883C5.30238 17.9883 4.14844 19.1422 4.14844 20.5657C4.14844 21.9892 5.30238 23.1431 6.72585 23.1431Z" stroke="white" stroke-width="1.5" stroke-miterlimit="10" stroke-linecap="round" stroke-linejoin="round"/>
<path d="M14.9121 8.71983L16.5489 7.2793" stroke="white" stroke-width="1.5" stroke-miterlimit="10" stroke-linecap="round" stroke-linejoin="round"/>
<path d="M6.46484 5.45703L9.66809 8.73064" stroke="white" stroke-width="1.5" stroke-miterlimit="10" stroke-linecap="round" stroke-linejoin="round"/>
<path d="M18.3547 15.1745L15.1699 13.1562" stroke="white" stroke-width="1.5" stroke-miterlimit="10" stroke-linecap="round" stroke-linejoin="round"/>
<path d="M7.87695 18.2875L10.3062 14.1992" stroke="white" stroke-width="1.5" stroke-miterlimit="10" stroke-linecap="round" stroke-linejoin="round"/>
</g>
</svg>
