<svg width="25" height="24" viewBox="0 0 25 24" fill="none" xmlns="http://www.w3.org/2000/svg">
<g opacity="0.5">
<path fill-rule="evenodd" clip-rule="evenodd" d="M1.25 3.21484C1.25 2.80063 1.58579 2.46484 2 2.46484H22.3405C22.7548 2.46484 23.0905 2.80063 23.0905 3.21484V16.7752C23.0905 17.1894 22.7548 17.5252 22.3405 17.5252H10.7856L6.34395 21.9668C6.12945 22.1813 5.80686 22.2455 5.5266 22.1294C5.24635 22.0133 5.06362 21.7398 5.06362 21.4365V17.5252H2C1.58579 17.5252 1.25 17.1894 1.25 16.7752V3.21484ZM21.5905 16.0252H10.4869C10.291 16.0221 10.0941 16.0953 9.94466 16.2448L6.56362 19.6258V16.7942L6.56385 16.7752C6.56385 16.4645 6.37497 16.198 6.10579 16.0841C6.09457 16.0794 6.08321 16.0749 6.07173 16.0707C5.99125 16.0412 5.90431 16.0251 5.81362 16.0251L5.80159 16.0252H2.75V3.96484H21.5905V16.0252ZM5.39007 6.70201H4.64007V8.20201H5.39007H18.5267H19.2767V6.70201H18.5267H5.39007ZM4.64007 9.24498H5.39007H18.5267H19.2767V10.745H18.5267H5.39007H4.64007V9.24498ZM5.39007 11.7879H4.64007V13.2879H5.39007H14.7128H15.4628V11.7879H14.7128H5.39007Z" fill="white"/>
</g>
</svg>
