<svg width="25" height="24" viewBox="0 0 25 24" fill="none" xmlns="http://www.w3.org/2000/svg">
<g opacity="0.5">
<path d="M17.5929 6.4146C17.5929 6.97149 17.1414 7.42295 16.5845 7.42295C16.0276 7.42295 15.5762 6.97149 15.5762 6.4146C15.5762 5.8577 16.0276 5.40625 16.5845 5.40625C17.1414 5.40625 17.5929 5.8577 17.5929 6.4146Z" stroke="white" stroke-width="1.5" stroke-miterlimit="10" stroke-linejoin="round"/>
<path d="M13.6569 17.2313C18.932 13.8892 21.5176 7.35043 19.7758 0.857422C13.2828 2.59499 8.90982 8.10697 8.65625 14.3464L13.6569 17.2313Z" stroke="white" stroke-width="1.5" stroke-miterlimit="10" stroke-linejoin="round"/>
<path d="M13.6543 17.231C14.5688 18.7108 14.8141 20.5648 14.4067 22.2857C16.8966 20.598 18.3266 17.1562 17.1544 14.0801" stroke="white" stroke-width="1.5" stroke-miterlimit="10" stroke-linejoin="round"/>
<path d="M8.68317 14.3639C6.94561 14.314 5.21636 15.029 3.92773 16.2386C4.14389 13.2373 6.40937 10.2818 9.66003 9.75391" stroke="white" stroke-width="1.5" stroke-miterlimit="10" stroke-linejoin="round"/>
<path d="M12.9322 16.8191C12.2214 18.9349 10.4007 20.5977 8.03546 21.1921C7.36621 18.8477 7.89829 16.4367 9.37397 14.7656" stroke="white" stroke-width="1.5" stroke-miterlimit="10" stroke-linejoin="round"/>
</g>
</svg>
